<svg width="825" height="722" viewBox="0 0 825 722" fill="none" xmlns="http://www.w3.org/2000/svg">
<g clip-path="url(#clip0_371_285)" filter="url(#filter0_d_371_285)">
<path d="M581.67 542.046C584.796 542.046 587.086 542.654 588.54 543.887C589.994 545.104 590.721 546.617 590.721 548.409C590.721 550.201 589.83 551.697 588.067 552.93C586.305 554.146 583.433 554.771 579.489 554.771C575.546 554.771 572.165 554.377 569.039 553.571C565.914 552.765 563.242 551.483 561.007 549.691C558.771 547.899 557.045 545.597 555.864 542.77C554.664 539.942 554.064 536.506 554.064 532.461V487.02H545.795C543.814 487.02 542.179 486.411 540.888 485.178C539.58 483.962 538.944 482.548 538.944 480.937C538.944 479.243 539.598 477.813 540.888 476.629C542.197 475.445 543.832 474.87 545.795 474.87H554.064V456.095C554.064 454.303 554.737 452.807 556.1 451.574C557.445 450.357 559.117 449.732 561.098 449.732C563.079 449.732 564.732 450.341 566.095 451.574C567.44 452.79 568.131 454.303 568.131 456.095V474.87H582.015C583.996 474.87 585.632 475.478 586.922 476.711C588.231 477.928 588.867 479.342 588.867 480.953C588.867 482.646 588.213 484.077 586.922 485.26C585.632 486.444 583.978 487.02 582.015 487.02H568.131V531.754C568.131 535.338 569.148 537.936 571.166 539.58C573.201 541.224 576.709 542.046 581.688 542.046H581.67Z" fill="#040000"/>
<path d="M579.489 558.075C575.328 558.075 571.475 557.631 568.04 556.744C564.387 555.806 561.207 554.261 558.571 552.157C555.9 550.019 553.828 547.257 552.429 543.936C551.084 540.747 550.393 536.883 550.393 532.444V490.324H545.795C542.833 490.324 540.216 489.337 538.235 487.463C536.29 485.638 535.255 483.369 535.255 480.92C535.255 478.47 536.309 476.053 538.271 474.261C540.252 472.469 542.851 471.516 545.777 471.516H550.375V456.062C550.375 453.415 551.447 451.031 553.483 449.206C555.518 447.365 558.135 446.395 561.079 446.395C564.024 446.395 566.641 447.365 568.658 449.206C570.693 451.047 571.766 453.415 571.766 456.078V471.532H581.979C584.941 471.532 587.559 472.519 589.539 474.376C591.484 476.218 592.52 478.47 592.52 480.92C592.52 483.484 591.466 485.786 589.503 487.578C587.522 489.37 584.923 490.307 581.997 490.307H571.784V531.721C571.784 534.302 572.402 536.094 573.601 537.081C574.346 537.689 576.382 538.708 581.688 538.708C585.741 538.708 588.903 539.629 591.048 541.421C593.247 543.279 594.41 545.679 594.41 548.375C594.41 551.072 592.992 553.686 590.321 555.527C587.867 557.22 584.324 558.042 579.508 558.042L579.489 558.075ZM545.795 478.191C544.523 478.191 543.887 478.618 543.469 478.98C542.851 479.539 542.597 480.114 542.597 480.936C542.597 481.676 542.887 482.268 543.524 482.86C544.141 483.435 544.814 483.682 545.795 483.682H557.735V532.444C557.735 536.061 558.262 539.136 559.28 541.552C560.262 543.854 561.661 545.745 563.424 547.175C565.259 548.638 567.422 549.674 570.039 550.348C572.82 551.055 576 551.417 579.489 551.417C583.56 551.417 585.214 550.693 585.85 550.266C586.904 549.526 587.05 548.934 587.05 548.392C587.05 547.52 586.741 546.912 586.032 546.304C585.305 545.696 583.76 545.35 581.67 545.35C575.691 545.35 571.438 544.265 568.694 542.029C565.877 539.744 564.442 536.275 564.442 531.721V483.665H581.997C583.27 483.665 583.906 483.238 584.324 482.876C584.941 482.317 585.196 481.742 585.196 480.92C585.196 480.18 584.905 479.588 584.269 478.98C583.669 478.404 582.979 478.158 581.997 478.158H564.442V456.062C564.442 455.157 564.151 454.483 563.478 453.891C562.824 453.3 562.079 453.037 561.079 453.037C560.08 453.037 559.335 453.3 558.68 453.891C558.026 454.483 557.735 455.157 557.735 456.062V478.158H545.795V478.191Z" fill="#040000"/>
<path d="M678.245 553.916C674.92 553.916 672.139 553.439 669.904 552.502C667.668 551.565 665.851 550.217 664.452 548.474C663.052 546.731 662.053 544.693 661.489 542.342C660.908 539.991 660.635 537.41 660.635 534.582V519.9C654.074 517.648 648.204 516.349 643.006 516.021C637.809 515.692 633.393 516.086 629.74 517.221C626.105 518.355 623.324 520.098 621.398 522.449C619.472 524.8 618.508 527.578 618.508 530.768C618.508 535.009 620.162 538.199 623.506 540.369C626.832 542.539 631.248 543.706 636.773 543.904C639.372 544.002 641.716 543.805 643.788 543.345C645.86 542.868 648.004 542.309 650.185 541.651C651.748 541.175 653.093 541.175 654.238 541.651C655.383 542.128 656.182 542.802 656.655 543.69C657.127 544.578 657.182 545.646 656.819 546.863C656.455 548.08 655.601 549.165 654.238 550.102C652.257 551.516 649.585 552.617 646.205 553.423C642.825 554.228 638.954 554.623 634.574 554.623C630.83 554.623 627.159 554.13 623.579 553.143C619.999 552.157 616.8 550.677 613.983 548.704C611.166 546.731 608.876 544.183 607.113 541.076C605.351 537.969 604.46 534.302 604.46 530.061C604.46 524.882 606.096 520.41 609.367 516.645C612.638 512.88 616.927 510.085 622.234 508.244C627.541 506.403 633.538 505.63 640.262 505.91C646.968 506.189 653.765 507.8 660.617 510.71V500.55C660.617 497.919 660.072 495.651 658.981 493.776C657.891 491.902 656.401 490.34 654.529 489.124C652.657 487.907 650.494 487.003 648.059 486.444C645.605 485.885 643.043 485.589 640.335 485.589C636.282 485.589 633.084 486.033 630.739 486.937C628.395 487.825 626.468 488.828 624.96 489.896C623.452 490.982 622.052 491.968 620.744 492.856C619.435 493.744 617.745 494.204 615.673 494.204C614.11 494.204 612.711 493.727 611.457 492.79C610.203 491.853 609.585 490.439 609.585 488.548C609.585 486.855 610.33 485.112 611.839 483.32C613.347 481.528 615.455 479.917 618.163 478.454C620.871 476.991 624.088 475.79 627.831 474.853C631.575 473.916 635.683 473.439 640.153 473.439C644.933 473.439 649.44 474.048 653.656 475.281C657.873 476.497 661.507 478.224 664.579 480.427C667.65 482.646 670.067 485.293 671.83 488.4C673.593 491.508 674.483 494.993 674.483 498.84V533.004C674.483 536.012 674.738 538.363 675.265 540.057C675.792 541.75 676.61 542.605 677.755 542.605H679.627C681.807 542.605 683.607 543.147 685.006 544.233C686.405 545.318 687.114 546.649 687.114 548.26C687.114 549.872 686.351 551.203 684.861 552.288C683.352 553.373 681.135 553.916 678.227 553.916H678.245Z" fill="#040000"/>
<path d="M634.556 557.944C630.467 557.944 626.414 557.401 622.488 556.316C618.49 555.215 614.855 553.538 611.711 551.318C608.495 549.05 605.841 546.123 603.842 542.588C601.807 539.021 600.789 534.812 600.789 530.061C600.789 524.142 602.715 518.947 606.495 514.59C610.167 510.365 615.037 507.192 620.944 505.153C626.705 503.164 633.265 502.309 640.444 502.605C645.896 502.835 651.421 503.887 656.964 505.729V500.55C656.964 498.478 656.546 496.703 655.746 495.322C654.91 493.892 653.82 492.741 652.402 491.82C650.912 490.85 649.149 490.127 647.168 489.666C645.024 489.173 642.734 488.926 640.353 488.926C636.809 488.926 634.065 489.288 632.193 490.012C630.176 490.784 628.522 491.623 627.268 492.511C625.741 493.612 624.306 494.615 622.997 495.519C621.053 496.851 618.599 497.541 615.71 497.541C613.274 497.541 611.057 496.802 609.149 495.355C607.695 494.253 605.95 492.198 605.95 488.565C605.95 486.132 606.968 483.698 608.967 481.331C610.748 479.21 613.22 477.287 616.327 475.626C619.308 474.031 622.852 472.7 626.905 471.68C630.957 470.661 635.428 470.151 640.208 470.151C645.351 470.151 650.258 470.825 654.819 472.141C659.436 473.489 663.506 475.396 666.905 477.862C670.376 480.361 673.139 483.402 675.138 486.904C677.173 490.472 678.191 494.5 678.191 498.873V533.036C678.191 535.733 678.409 537.821 678.845 539.202C678.845 539.235 678.863 539.284 678.881 539.317H679.681C682.752 539.317 685.369 540.122 687.441 541.734C689.658 543.443 690.84 545.712 690.84 548.277C690.84 550.842 689.586 553.193 687.187 554.902C685.024 556.464 682.025 557.237 678.282 557.237C674.538 557.237 671.103 556.662 668.395 555.511C665.596 554.343 663.288 552.634 661.507 550.431C660.999 549.806 660.544 549.132 660.126 548.441C659.454 550.069 658.236 551.516 656.51 552.732C654.183 554.393 651.021 555.708 647.168 556.629C643.497 557.5 639.263 557.944 634.61 557.944H634.556ZM637.627 509.198C632.429 509.198 627.686 509.921 623.524 511.368C618.872 512.979 615.074 515.445 612.22 518.717C609.44 521.906 608.095 525.622 608.095 530.077C608.095 533.76 608.858 536.949 610.33 539.563C611.839 542.227 613.82 544.413 616.182 546.09C618.617 547.8 621.452 549.115 624.597 549.987C627.813 550.875 631.157 551.318 634.519 551.318C638.554 551.318 642.152 550.957 645.224 550.233C648.095 549.559 650.349 548.639 651.912 547.521C652.657 547.011 653.057 546.518 653.22 546.008C653.366 545.531 653.347 545.235 653.293 545.12C653.256 545.055 653.166 544.89 652.675 544.676C652.42 544.578 651.93 544.627 651.294 544.808C649.04 545.482 646.805 546.074 644.624 546.567C642.225 547.11 639.499 547.34 636.573 547.225C630.358 547.011 625.233 545.614 621.307 543.082C617.036 540.32 614.783 536.062 614.783 530.784C614.783 526.871 616 523.402 618.381 520.476C620.744 517.582 624.142 515.429 628.486 514.081C632.575 512.815 637.518 512.354 643.188 512.716C648.731 513.061 655.019 514.442 661.871 516.81L664.233 517.632V534.598C664.233 537.18 664.488 539.547 664.997 541.651C665.451 543.542 666.251 545.186 667.341 546.551C668.377 547.849 669.704 548.819 671.376 549.526C673.12 550.266 675.41 550.628 678.173 550.628C680.19 550.628 681.698 550.316 682.516 549.724C683.316 549.148 683.389 548.688 683.389 548.31C683.389 547.784 683.243 547.34 682.571 546.814C681.844 546.255 680.862 545.992 679.572 545.992H677.7C676.337 545.992 673.048 545.515 671.666 541.027C671.049 539.037 670.758 536.423 670.758 533.086V498.922C670.758 495.618 669.995 492.609 668.504 489.995C666.978 487.332 664.869 485.014 662.216 483.09C659.508 481.15 656.219 479.605 652.457 478.503C648.622 477.385 644.46 476.826 640.081 476.826C635.973 476.826 632.157 477.254 628.74 478.125C625.323 478.98 622.379 480.081 619.962 481.38C617.672 482.613 615.891 483.978 614.692 485.408C613.692 486.592 613.183 487.677 613.183 488.614C613.183 489.88 613.601 490.192 613.729 490.291C614.31 490.735 614.892 490.932 615.601 490.932C616.855 490.932 617.818 490.702 618.454 490.275C619.744 489.387 621.125 488.417 622.616 487.348C624.378 486.082 626.596 484.931 629.231 483.929C632.066 482.843 635.664 482.334 640.262 482.334C643.261 482.334 646.169 482.646 648.895 483.287C651.766 483.945 654.365 485.03 656.6 486.493C658.927 488.022 660.799 489.962 662.143 492.297C663.507 494.648 664.197 497.443 664.197 500.616V516.004L658.963 513.785C652.566 511.072 646.187 509.559 639.99 509.296C639.172 509.263 638.354 509.247 637.554 509.247L637.627 509.198ZM639.572 519.243C636.228 519.243 633.32 519.621 630.885 520.377C627.94 521.298 625.778 522.613 624.306 524.438C622.852 526.214 622.143 528.302 622.143 530.784C622.143 533.957 623.252 536.144 625.614 537.689C628.34 539.465 632.12 540.435 636.864 540.599C639.117 540.681 641.116 540.517 642.861 540.139C644.842 539.695 646.914 539.136 648.986 538.511C651.439 537.771 653.711 537.821 655.71 538.643C656.237 538.856 656.746 539.12 657.2 539.415C657.018 537.886 656.928 536.275 656.928 534.615V522.251C651.694 520.591 646.914 519.621 642.716 519.358C641.625 519.292 640.589 519.259 639.572 519.259V519.243Z" fill="#040000"/>
<path d="M722.862 542.752C725.043 542.752 726.678 543.361 727.769 544.594C728.859 545.81 729.332 547.191 729.168 548.687C729.005 550.2 728.187 551.565 726.678 552.781C725.17 553.998 722.862 554.622 719.736 554.622C714.229 554.622 709.831 553.11 706.56 550.101C703.289 547.093 701.653 542.572 701.653 536.554V447.348C701.653 445.556 702.325 444.06 703.689 442.827C705.052 441.594 706.705 440.985 708.686 440.985C710.667 440.985 712.321 441.594 713.684 442.827C715.029 444.043 715.72 445.556 715.72 447.348V531.474C715.72 535.058 716.247 537.82 717.282 539.81C718.318 541.782 720.19 542.769 722.898 542.769L722.862 542.752Z" fill="#040000"/>
<path d="M719.736 557.944C713.23 557.944 707.923 556.086 703.943 552.437C699.981 548.803 697.964 543.46 697.964 536.555V447.349C697.964 444.702 699.036 442.318 701.072 440.476C703.107 438.635 705.724 437.665 708.668 437.665C711.612 437.665 714.229 438.635 716.247 440.476C718.282 442.318 719.354 444.685 719.354 447.349V531.475C719.354 535.289 720.009 537.328 720.554 538.38C720.845 538.939 721.244 539.449 722.862 539.449C727.024 539.449 729.386 541.109 730.622 542.506C732.312 544.397 733.076 546.65 732.821 549.001C732.567 551.352 731.331 553.456 729.114 555.248C726.915 557.024 723.752 557.928 719.718 557.928L719.736 557.944ZM708.65 444.323C707.65 444.323 706.905 444.587 706.251 445.178C705.597 445.77 705.306 446.444 705.306 447.349V536.555C705.306 541.652 706.596 545.416 709.159 547.767C711.74 550.135 715.193 551.286 719.718 551.286C721.826 551.286 723.425 550.94 724.207 550.299C725.388 549.329 725.479 548.606 725.497 548.376C725.57 547.735 725.388 547.225 724.897 546.682C724.752 546.518 724.37 546.091 722.844 546.091C718.736 546.091 715.556 544.364 713.92 541.224C712.63 538.774 712.012 535.585 712.012 531.475V447.349C712.012 446.444 711.721 445.77 711.049 445.178C710.395 444.587 709.65 444.323 708.65 444.323Z" fill="#040000"/>
<path d="M744.543 447.348C744.543 445.556 745.216 444.06 746.579 442.827C747.924 441.61 749.595 440.985 751.576 440.985C753.557 440.985 755.211 441.594 756.574 442.827C757.919 444.043 758.61 445.556 758.61 447.348V547.553C758.61 549.345 757.937 550.841 756.574 552.074C755.229 553.291 753.557 553.916 751.576 553.916C749.595 553.916 747.942 553.307 746.579 552.074C745.234 550.858 744.543 549.345 744.543 547.553V447.348ZM800.864 476.711C802.845 475.017 804.807 474.212 806.788 474.31C808.769 474.409 810.368 475.001 811.622 476.069C812.876 477.155 813.494 478.568 813.494 480.311C813.494 482.054 812.513 483.764 810.532 485.457L778.401 512.42L814.276 542.341C816.348 544.035 817.365 545.777 817.311 547.569C817.256 549.362 816.584 550.808 815.275 551.943C813.967 553.077 812.277 553.685 810.205 553.784C808.115 553.883 806.098 553.077 804.117 551.384L764.48 517.368C762.608 515.773 761.699 514.129 761.754 512.436C761.808 510.743 762.717 509.148 764.48 507.635L800.827 476.727L800.864 476.711Z" fill="#040000"/>
<path d="M751.558 557.237C748.632 557.237 745.997 556.267 743.962 554.426C741.926 552.601 740.854 550.217 740.854 547.554V447.349C740.854 444.685 741.926 442.318 743.962 440.476C745.997 438.635 748.614 437.665 751.54 437.665C754.466 437.665 757.101 438.635 759.118 440.476C761.154 442.318 762.226 444.685 762.226 447.349V504.973L798.319 474.278C801.045 471.944 803.953 470.842 806.952 470.974C809.823 471.105 812.24 472.009 814.13 473.653C816.093 475.363 817.129 477.648 817.129 480.295C817.129 482.942 815.748 485.524 813.022 487.858L783.762 512.404L816.729 539.892C819.601 542.227 821.036 544.841 820.945 547.636C820.873 550.283 819.782 552.601 817.783 554.327C815.839 556.021 813.331 556.941 810.35 557.089C807.242 557.221 804.28 556.119 801.554 553.785L762.19 519.999V547.57C762.19 550.217 761.118 552.601 759.082 554.442C757.047 556.284 754.43 557.254 751.485 557.254L751.558 557.237ZM751.558 444.323C750.559 444.323 749.813 444.587 749.159 445.178C748.505 445.77 748.214 446.444 748.214 447.349V547.554C748.214 548.458 748.505 549.132 749.159 549.724C749.813 550.316 750.559 550.595 751.558 550.595C752.558 550.595 753.303 550.332 753.957 549.724C754.611 549.132 754.902 548.458 754.902 547.554V447.349C754.902 446.444 754.611 445.77 753.939 445.178C753.285 444.587 752.539 444.323 751.54 444.323H751.558ZM806.479 477.632C805.589 477.632 804.535 478.142 803.39 479.128L767.042 510.053C765.497 511.368 765.479 512.239 765.461 512.519C765.443 513.226 765.97 514.031 767.042 514.952L806.679 548.968C808.496 550.529 809.678 550.48 810.059 550.464C811.622 550.398 812.349 549.905 812.767 549.543C813.167 549.198 813.64 548.639 813.676 547.472C813.694 546.518 812.695 545.499 811.84 544.808L773.003 512.42L808.06 483.025C808.86 482.334 809.841 481.282 809.841 480.312C809.841 479.26 809.46 478.799 809.096 478.471C808.715 478.142 808.042 477.698 806.606 477.632C806.57 477.632 806.534 477.632 806.497 477.632H806.479Z" fill="#040000"/>
<path d="M226.228 540.927C197.587 540.927 174.288 519.851 174.288 493.94C174.288 468.03 197.587 446.953 226.228 446.953C254.87 446.953 278.169 468.03 278.169 493.94C278.169 519.851 254.87 540.927 226.228 540.927ZM226.228 469.625C211.399 469.625 199.331 480.541 199.331 493.957C199.331 507.372 211.399 518.289 226.228 518.289C241.058 518.289 253.125 507.372 253.125 493.957C253.125 480.541 241.058 469.625 226.228 469.625Z" fill="#040000"/>
<path d="M479.843 646.477V460.484C479.843 458.462 479.243 456.572 478.225 454.911C476.317 450.867 471.883 448.023 466.721 448.023L431.464 447.99C413.745 447.99 397.825 455.306 387.084 466.831C385.848 465.334 384.485 463.904 383.031 462.523C373.018 453.103 358.733 447.907 342.831 447.907C323.585 447.907 307.392 457.377 298.433 473.916C294.071 481.956 291.963 491.196 292.363 500.632V500.83L292.199 530.702V541.898C292.199 548.655 286.383 554.163 279.259 554.163L269.7 554.13L54.8319 553.39H42.0376C34.8772 553.39 29.0616 547.883 29.0616 541.126V522.613L29.0616 11.4054C29.0616 5.14156 23.4822 0.0778706 16.558 0.0614301H16.5399C9.61568 0.0614301 4 5.12512 4 11.3725V522.597V541.126C4 560.377 21.047 576.045 42.0194 576.045H54.7592L269.591 576.785L279.205 576.818C300.159 576.818 317.224 561.15 317.224 541.898V530.785L317.406 500.468L317.37 499.794C317.133 494.089 318.351 488.598 320.895 483.912C324.203 477.829 330.691 470.579 342.813 470.579C363.077 470.579 372.309 483.238 372.309 495.01V495.503L373.018 502.901C373.018 502.901 373.018 502.951 373.018 502.983L373.09 503.723C373.417 533.201 399.515 557.073 431.555 557.073C438.479 557.073 444.077 552.009 444.077 545.745C444.077 539.481 438.479 534.418 431.555 534.418C413.127 534.418 398.134 520.394 398.134 503.164V502.638L398.025 501.504C398.261 484.455 413.163 470.661 431.428 470.661H454.799V646.575V646.657C454.799 648.006 454.636 679.654 424.867 688.367C413.527 691.688 401.26 690.866 390.355 686.033C373.654 678.634 364.585 665.679 363.385 647.512V613.004C363.385 606.74 357.788 601.676 350.864 601.676C343.94 601.676 338.342 606.74 338.342 613.004V648.466C339.269 663.427 344.176 676.349 352.917 686.92C359.678 695.075 368.565 701.618 379.342 706.402C389.319 710.825 400.06 713.061 410.837 713.061C418.161 713.061 425.485 712.025 432.591 709.937C452.437 704.117 466.921 691.162 474.518 672.436C479.77 659.448 479.879 648.186 479.861 646.493L479.843 646.477Z" fill="#040000"/>
</g>
<defs>
<filter id="filter0_d_371_285" x="0" y="0" width="825" height="722" filterUnits="userSpaceOnUse" color-interpolation-filters="sRGB">
<feFlood flood-opacity="0" result="BackgroundImageFix"/>
<feColorMatrix in="SourceAlpha" type="matrix" values="0 0 0 0 0 0 0 0 0 0 0 0 0 0 0 0 0 0 127 0" result="hardAlpha"/>
<feOffset dy="4"/>
<feGaussianBlur stdDeviation="2"/>
<feComposite in2="hardAlpha" operator="out"/>
<feColorMatrix type="matrix" values="0 0 0 0 0 0 0 0 0 0 0 0 0 0 0 0 0 0 0.25 0"/>
<feBlend mode="normal" in2="BackgroundImageFix" result="effect1_dropShadow_371_285"/>
<feBlend mode="normal" in="SourceGraphic" in2="effect1_dropShadow_371_285" result="shape"/>
</filter>
<clipPath id="clip0_371_285">
<rect width="817" height="714" fill="white" transform="translate(4)"/>
</clipPath>
</defs>
</svg>
